<svg id="visual" viewBox="0 0 900 450" width="900" height="450" xmlns="http://www.w3.org/2000/svg" xmlns:xlink="http://www.w3.org/1999/xlink" version="1.1"><rect x="0" y="0" width="900" height="450" fill="#060a22"></rect><path d="M0 235L21.5 236.7C43 238.3 86 241.7 128.8 247.2C171.7 252.7 214.3 260.3 257.2 263.5C300 266.7 343 265.3 385.8 271.2C428.7 277 471.3 290 514.2 295C557 300 600 297 642.8 283.3C685.7 269.7 728.3 245.3 771.2 229.8C814 214.3 857 207.7 878.5 204.3L900 201L900 451L878.5 451C857 451 814 451 771.2 451C728.3 451 685.7 451 642.8 451C600 451 557 451 514.2 451C471.3 451 428.7 451 385.8 451C343 451 300 451 257.2 451C214.3 451 171.7 451 128.8 451C86 451 43 451 21.5 451L0 451Z" fill="#3d6ddb"></path><path d="M0 297L21.5 295.3C43 293.7 86 290.3 128.8 284.2C171.7 278 214.3 269 257.2 270.5C300 272 343 284 385.8 285.3C428.7 286.7 471.3 277.3 514.2 277.7C557 278 600 288 642.8 294.8C685.7 301.7 728.3 305.3 771.2 297.7C814 290 857 271 878.5 261.5L900 252L900 451L878.5 451C857 451 814 451 771.2 451C728.3 451 685.7 451 642.8 451C600 451 557 451 514.2 451C471.3 451 428.7 451 385.8 451C343 451 300 451 257.2 451C214.3 451 171.7 451 128.8 451C86 451 43 451 21.5 451L0 451Z" fill="#40559b"></path><path d="M0 329L21.5 331.2C43 333.3 86 337.7 128.8 335.8C171.7 334 214.3 326 257.2 332.7C300 339.3 343 360.7 385.8 358.7C428.7 356.7 471.3 331.3 514.2 321.7C557 312 600 318 642.8 328.7C685.7 339.3 728.3 354.7 771.2 362.3C814 370 857 370 878.5 370L900 370L900 451L878.5 451C857 451 814 451 771.2 451C728.3 451 685.7 451 642.8 451C600 451 557 451 514.2 451C471.3 451 428.7 451 385.8 451C343 451 300 451 257.2 451C214.3 451 171.7 451 128.8 451C86 451 43 451 21.5 451L0 451Z" fill="#383e5f"></path><path d="M0 406L21.5 405.2C43 404.3 86 402.7 128.8 394.2C171.7 385.7 214.3 370.3 257.2 365.3C300 360.3 343 365.7 385.8 366.5C428.7 367.3 471.3 363.7 514.2 368.2C557 372.7 600 385.3 642.8 393C685.7 400.7 728.3 403.3 771.2 403.2C814 403 857 400 878.5 398.5L900 397L900 451L878.5 451C857 451 814 451 771.2 451C728.3 451 685.7 451 642.8 451C600 451 557 451 514.2 451C471.3 451 428.7 451 385.8 451C343 451 300 451 257.2 451C214.3 451 171.7 451 128.8 451C86 451 43 451 21.5 451L0 451Z" fill="#282828"></path></svg>