<svg id="visual" viewBox="0 0 900 450" width="900" height="450" xmlns="http://www.w3.org/2000/svg" xmlns:xlink="http://www.w3.org/1999/xlink" version="1.1"><rect x="0" y="0" width="900" height="450" fill="#282828"></rect><path d="M0 265L21.5 265.7C43 266.3 86 267.7 128.8 258.3C171.7 249 214.3 229 257.2 231.3C300 233.7 343 258.3 385.8 272C428.7 285.7 471.3 288.3 514.2 278.3C557 268.3 600 245.7 642.8 248.5C685.7 251.3 728.3 279.7 771.2 277.3C814 275 857 242 878.5 225.5L900 209L900 451L878.5 451C857 451 814 451 771.2 451C728.3 451 685.7 451 642.8 451C600 451 557 451 514.2 451C471.3 451 428.7 451 385.8 451C343 451 300 451 257.2 451C214.3 451 171.7 451 128.8 451C86 451 43 451 21.5 451L0 451Z" fill="#3d6ddb"></path><path d="M0 328L21.5 316C43 304 86 280 128.8 267.8C171.7 255.7 214.3 255.3 257.2 262.2C300 269 343 283 385.8 287.8C428.7 292.7 471.3 288.3 514.2 292.8C557 297.3 600 310.7 642.8 312.5C685.7 314.3 728.3 304.7 771.2 299.7C814 294.7 857 294.3 878.5 294.2L900 294L900 451L878.5 451C857 451 814 451 771.2 451C728.3 451 685.7 451 642.8 451C600 451 557 451 514.2 451C471.3 451 428.7 451 385.8 451C343 451 300 451 257.2 451C214.3 451 171.7 451 128.8 451C86 451 43 451 21.5 451L0 451Z" fill="#284a98"></path><path d="M0 382L21.5 379.7C43 377.3 86 372.7 128.8 363.7C171.7 354.7 214.3 341.3 257.2 330.8C300 320.3 343 312.7 385.8 312C428.7 311.3 471.3 317.7 514.2 325.5C557 333.3 600 342.7 642.8 348.3C685.7 354 728.3 356 771.2 348.3C814 340.7 857 323.3 878.5 314.7L900 306L900 451L878.5 451C857 451 814 451 771.2 451C728.3 451 685.7 451 642.8 451C600 451 557 451 514.2 451C471.3 451 428.7 451 385.8 451C343 451 300 451 257.2 451C214.3 451 171.7 451 128.8 451C86 451 43 451 21.5 451L0 451Z" fill="#162a59"></path><path d="M0 408L21.5 399.3C43 390.7 86 373.3 128.8 370.8C171.7 368.3 214.3 380.7 257.2 383.8C300 387 343 381 385.8 377.8C428.7 374.7 471.3 374.3 514.2 371.7C557 369 600 364 642.8 368.5C685.7 373 728.3 387 771.2 388.2C814 389.3 857 377.7 878.5 371.8L900 366L900 451L878.5 451C857 451 814 451 771.2 451C728.3 451 685.7 451 642.8 451C600 451 557 451 514.2 451C471.3 451 428.7 451 385.8 451C343 451 300 451 257.2 451C214.3 451 171.7 451 128.8 451C86 451 43 451 21.5 451L0 451Z" fill="#060a22"></path></svg>