<svg id="visual" viewBox="0 0 900 450" width="900" height="450" xmlns="http://www.w3.org/2000/svg" xmlns:xlink="http://www.w3.org/1999/xlink" version="1.1"><rect x="0" y="0" width="900" height="450" fill="#282828"></rect><path d="M0 310L25 297C50 284 100 258 150 241.2C200 224.3 250 216.7 300 225.3C350 234 400 259 450 273C500 287 550 290 600 285.2C650 280.3 700 267.7 750 258C800 248.3 850 241.7 875 238.3L900 235L900 451L875 451C850 451 800 451 750 451C700 451 650 451 600 451C550 451 500 451 450 451C400 451 350 451 300 451C250 451 200 451 150 451C100 451 50 451 25 451L0 451Z" fill="#db3d3d"></path><path d="M0 288L25 283.5C50 279 100 270 150 267.5C200 265 250 269 300 274.5C350 280 400 287 450 290C500 293 550 292 600 294.8C650 297.7 700 304.3 750 308.8C800 313.3 850 315.7 875 316.8L900 318L900 451L875 451C850 451 800 451 750 451C700 451 650 451 600 451C550 451 500 451 450 451C400 451 350 451 300 451C250 451 200 451 150 451C100 451 50 451 25 451L0 451Z" fill="#963033"></path><path d="M0 337L25 341.2C50 345.3 100 353.7 150 360.8C200 368 250 374 300 375.2C350 376.3 400 372.7 450 359.7C500 346.7 550 324.3 600 318C650 311.7 700 321.3 750 326.7C800 332 850 333 875 333.5L900 334L900 451L875 451C850 451 800 451 750 451C700 451 650 451 600 451C550 451 500 451 450 451C400 451 350 451 300 451C250 451 200 451 150 451C100 451 50 451 25 451L0 451Z" fill="#542224"></path><path d="M0 404L25 401.8C50 399.7 100 395.3 150 396.8C200 398.3 250 405.7 300 402.7C350 399.7 400 386.3 450 384.3C500 382.3 550 391.7 600 398.7C650 405.7 700 410.3 750 407.7C800 405 850 395 875 390L900 385L900 451L875 451C850 451 800 451 750 451C700 451 650 451 600 451C550 451 500 451 450 451C400 451 350 451 300 451C250 451 200 451 150 451C100 451 50 451 25 451L0 451Z" fill="#171111"></path></svg>