<svg id="visual" viewBox="0 0 900 450" width="900" height="450" xmlns="http://www.w3.org/2000/svg" xmlns:xlink="http://www.w3.org/1999/xlink" version="1.1"><rect x="0" y="0" width="900" height="450" fill="#171111"></rect><path d="M0 310L25 295.3C50 280.7 100 251.3 150 251C200 250.7 250 279.3 300 276.2C350 273 400 238 450 235.7C500 233.3 550 263.7 600 274.3C650 285 700 276 750 269.5C800 263 850 259 875 257L900 255L900 451L875 451C850 451 800 451 750 451C700 451 650 451 600 451C550 451 500 451 450 451C400 451 350 451 300 451C250 451 200 451 150 451C100 451 50 451 25 451L0 451Z" fill="#db3d3d"></path><path d="M0 260L25 268.8C50 277.7 100 295.3 150 302.2C200 309 250 305 300 307C350 309 400 317 450 309.8C500 302.7 550 280.3 600 276.7C650 273 700 288 750 291.2C800 294.3 850 285.7 875 281.3L900 277L900 451L875 451C850 451 800 451 750 451C700 451 650 451 600 451C550 451 500 451 450 451C400 451 350 451 300 451C250 451 200 451 150 451C100 451 50 451 25 451L0 451Z" fill="#9e3b36"></path><path d="M0 329L25 327C50 325 100 321 150 329.2C200 337.3 250 357.7 300 367.2C350 376.7 400 375.3 450 365.8C500 356.3 550 338.7 600 326.7C650 314.7 700 308.3 750 312.5C800 316.7 850 331.3 875 338.7L900 346L900 451L875 451C850 451 800 451 750 451C700 451 650 451 600 451C550 451 500 451 450 451C400 451 350 451 300 451C250 451 200 451 150 451C100 451 50 451 25 451L0 451Z" fill="#63342f"></path><path d="M0 384L25 383C50 382 100 380 150 385.2C200 390.3 250 402.7 300 408C350 413.3 400 411.7 450 409.5C500 407.3 550 404.7 600 398.8C650 393 700 384 750 383.5C800 383 850 391 875 395L900 399L900 451L875 451C850 451 800 451 750 451C700 451 650 451 600 451C550 451 500 451 450 451C400 451 350 451 300 451C250 451 200 451 150 451C100 451 50 451 25 451L0 451Z" fill="#282828"></path></svg>