<svg id="visual" viewBox="0 0 900 600" width="900" height="600" xmlns="http://www.w3.org/2000/svg" xmlns:xlink="http://www.w3.org/1999/xlink" version="1.1"><rect x="0" y="0" width="900" height="600" fill="#001220"></rect><path d="M0 354L21.5 360.5C43 367 86 380 128.8 389.2C171.7 398.3 214.3 403.7 257.2 406.5C300 409.3 343 409.7 385.8 412.3C428.7 415 471.3 420 514.2 414.7C557 409.3 600 393.7 642.8 382.7C685.7 371.7 728.3 365.3 771.2 371.5C814 377.7 857 396.3 878.5 405.7L900 415L900 601L878.5 601C857 601 814 601 771.2 601C728.3 601 685.7 601 642.8 601C600 601 557 601 514.2 601C471.3 601 428.7 601 385.8 601C343 601 300 601 257.2 601C214.3 601 171.7 601 128.8 601C86 601 43 601 21.5 601L0 601Z" fill="#fa7268"></path><path d="M0 477L21.5 474.5C43 472 86 467 128.8 463.7C171.7 460.3 214.3 458.7 257.2 456C300 453.3 343 449.7 385.8 453.8C428.7 458 471.3 470 514.2 467.2C557 464.3 600 446.7 642.8 442.8C685.7 439 728.3 449 771.2 456C814 463 857 467 878.5 469L900 471L900 601L878.5 601C857 601 814 601 771.2 601C728.3 601 685.7 601 642.8 601C600 601 557 601 514.2 601C471.3 601 428.7 601 385.8 601C343 601 300 601 257.2 601C214.3 601 171.7 601 128.8 601C86 601 43 601 21.5 601L0 601Z" fill="#eb5967"></path><path d="M0 502L21.5 503.5C43 505 86 508 128.8 508.5C171.7 509 214.3 507 257.2 496.7C300 486.3 343 467.7 385.8 461.3C428.7 455 471.3 461 514.2 468.3C557 475.7 600 484.3 642.8 492.3C685.7 500.3 728.3 507.7 771.2 497.7C814 487.7 857 460.3 878.5 446.7L900 433L900 601L878.5 601C857 601 814 601 771.2 601C728.3 601 685.7 601 642.8 601C600 601 557 601 514.2 601C471.3 601 428.7 601 385.8 601C343 601 300 601 257.2 601C214.3 601 171.7 601 128.8 601C86 601 43 601 21.5 601L0 601Z" fill="#da3f67"></path><path d="M0 541L21.5 542.8C43 544.7 86 548.3 128.8 542.5C171.7 536.7 214.3 521.3 257.2 516.7C300 512 343 518 385.8 516.8C428.7 515.7 471.3 507.3 514.2 511.5C557 515.7 600 532.3 642.8 537.2C685.7 542 728.3 535 771.2 532.5C814 530 857 532 878.5 533L900 534L900 601L878.5 601C857 601 814 601 771.2 601C728.3 601 685.7 601 642.8 601C600 601 557 601 514.2 601C471.3 601 428.7 601 385.8 601C343 601 300 601 257.2 601C214.3 601 171.7 601 128.8 601C86 601 43 601 21.5 601L0 601Z" fill="#c62368"></path></svg>